inDegrees=yes
name=ik_lifting_orientations
DataType=double
version=3
OpenSimVersion=4.5-2024-01-10-34fd6af
endheader
time	pelvis_tilt	pelvis_list	pelvis_rotation	pelvis_tx	pelvis_ty	pelvis_tz	hip_flexion_r	hip_adduction_r	hip_rotation_r	knee_angle_r	knee_angle_r_beta	ankle_angle_r	subtalar_angle_r	mtp_angle_r	hip_flexion_l	hip_adduction_l	hip_rotation_l	knee_angle_l	knee_angle_l_beta	ankle_angle_l	subtalar_angle_l	mtp_angle_l	lumbar_extension	lumbar_bending	lumbar_rotation	arm_flex_r	arm_add_r	arm_rot_r	elbow_flex_r	pro_sup_r	wrist_flex_r	wrist_dev_r	arm_flex_l	arm_add_l	arm_rot_l	elbow_flex_l	pro_sup_l	wrist_flex_l	wrist_dev_l
1.29	0.4838884925199034	27.71730631134522	-88.52603591170661	0	0.9399999998679526	0	43.78758860067848	-10.5808663182622	0	58.35084498456265	1.018414366301438	-5.194794082523353	0	0	43.78758860067848	-10.5808663182622	0	58.35084498456265	1.018414366301438	-5.194794082523353	0	0	-30.14168550213691	-6.879768686886727	-22.69586520596199	62.06607465385606	23.60633084020773	12.30029088900588	0.02478559981558448	5.02416315667474	0	0	0	-9.77949327009588	0	85.03197012219363	5.02416315667474	0	0
1.3	0.308306221989557	26.7375961560315	-88.66884330725603	0	0.9399999998679526	0	43.83239546149605	-10.51834039187223	0	58.40021007229646	1.019275949617929	-5.169146321955424	0	0	43.83239546149605	-10.51834039187223	0	58.40021007229646	1.019275949617929	-5.169146321955424	0	0	-29.35432303601053	-6.711599836387015	-22.24411968068001	61.51974120412851	23.27903023713156	12.26884808472735	0.02517873586532555	4.890910121301815	0	0	0	-9.883325150417141	0	85.163722735711	4.890910121301815	0	0
1.31	0.1964092144021489	25.80406056987273	-88.9541153115826	0	0.9399999998679526	0	43.87555253265399	-10.46262344083828	0	58.44808555358671	1.020111534397421	-5.146918571537692	0	0	43.87555253265399	-10.46262344083828	0	58.44808555358671	1.020111534397421	-5.146918571537692	0	0	-28.54257215837622	-6.565699800832822	-21.75216336833019	60.91147491610828	22.97774267149102	12.41817006142221	0.0255075678971187	4.76116281059444	0	0	0	-9.985130144340882	0	85.29200967041287	4.76116281059444	0	0
1.32	0.05554841520173324	25.00365229348965	-89.18731667873698	0	0.9399999998679526	0	43.9169428402787	-10.4131038190356	0	58.49426119210161	1.020917451323716	-5.127698409039537	0	0	43.9169428402787	-10.4131038190356	0	58.49426119210161	1.020917451323716	-5.127698409039537	0	0	-27.60136650644149	-6.362654546840632	-21.29224071015812	60.27045737799006	22.70524822209227	12.60385616801769	0.02530496939685124	4.635429068723249	0	0	0	-10.08443162627144	0	85.41632871468266	4.635429068723249	0	0
1.33	-0.09898077641648835	24.06776747152974	-89.47395807636124	0	0.9399999998679526	0	43.95844090641051	-10.36731358654071	0	58.5409747955698	1.021732757509707	-5.11042840566962	0	0	43.95844090641051	-10.36731358654071	0	58.5409747955698	1.021732757509707	-5.11042840566962	0	0	-26.73781426327784	-6.21572216304358	-20.6852785686422	59.57529126426816	22.40812536867216	12.75907901083082	0.02512350018178101	4.507904518478375	0	0	0	-10.18590236117551	0	85.5424189467161	4.507904518478375	0	0
1.34	-0.1946542380614434	23.01266095421425	-89.71204189911634	0	0.9399999998679526	0	43.9970090634067	-10.32786961829763	0	58.58472031109605	1.022496260788623	-5.09594484221831	0	0	43.9970090634067	-10.32786961829763	0	58.58472031109605	1.022496260788623	-5.09594484221831	0	0	-26.1372627453934	-6.057311408556416	-20.29933918610712	58.99293923924581	22.18517048161609	13.16779190170461	0.02471284325530229	4.38809670944006	0	0	0	-10.28189513977845	0	85.6608796685917	4.38809670944006	0	0
1.35	-0.2426407283546125	21.93934229865951	-89.82034709735613	0	0.9399999998679526	0	44.03436932356066	-10.2924457188702	0	58.62739310391772	1.023241041524382	-5.083284215509328	0	0	44.03436932356066	-10.2924457188702	0	58.62739310391772	1.023241041524382	-5.083284215509328	0	0	-25.50714947101323	-5.894936196067224	-20.11902663764585	58.3491287927419	22.03838988801702	13.44932030856081	0.02474442884698111	4.270806811446401	0	0	0	-10.37650376212108	0	85.77685118936594	4.270806811446401	0	0
1.36	-0.2749488881086883	20.99002662954146	-90.06101553885476	0	0.9399999998679526	0	44.06990693332047	-10.26093794075484	0	58.66825363094829	1.023954192255166	-5.072288568645444	0	0	44.06990693332047	-10.26093794075484	0	58.66825363094829	1.023954192255166	-5.072288568645444	0	0	-24.64205771013255	-5.752668311126258	-19.88285282163793	57.67805469706806	21.40914431387193	14.04053266798007	0.02545956466240219	4.158167733907304	0	0	0	-10.46791894238915	0	85.88822449183209	4.158167733907304	0	0
1.37	-0.2125388605214517	20.18726588151024	-90.19105021457355	0	0.9399999998679526	0	44.10441491971424	-10.23263308443546	0	58.70817629128581	1.024650974124211	-5.062685894940034	0	0	44.10441491971424	-10.23263308443546	0	58.70817629128581	1.024650974124211	-5.062685894940034	0	0	-23.53155144749315	-5.600390792992282	-19.75321108851318	56.84530716004716	20.56943323237577	14.76620033677137	0.02720376315520403	4.047617027062792	0	0	0	-10.55824356463141	0	85.99753323568689	4.047617027062792	0	0
1.38	0.08006074486239263	19.24580932985764	-90.87689328101526	0	0.9399999998679526	0	44.13851344601601	-10.20682332991836	0	58.7480102841387	1.02534620845371	-5.054175700292458	0	0	44.13851344601601	-10.20682332991836	0	58.7480102841387	1.02534620845371	-5.054175700292458	0	0	-22.60804334572028	-5.804340583790517	-19.23322571317445	56.12526249715316	19.62405755999546	15.51634480854369	0.02976748290533366	3.937093155194923	0	0	0	-10.64923635933367	0	86.1068157942621	3.937093155194923	0	0
1.39	0.5673229027865059	18.06286602489163	-92.03432668591516	0	0.9399999998679526	0	44.17299971750807	-10.18277495597072	0	58.78871132087238	1.026056575553688	-5.046472968985202	0	0	44.17299971750807	-10.18277495597072	0	58.78871132087238	1.026056575553688	-5.046472968985202	0	0	-22.05154728693581	-6.41287038683921	-18.42472068567903	55.61272147224917	18.6308794104673	16.22174618355132	0.03318651129594567	3.823963822657408	0	0	0	-10.74310520525374	0	86.21867489442538	3.823963822657408	0	0
1.4	0.7954266793155237	17.11082066310427	-92.61844648719052	0	0.9399999998679526	0	44.2047826924084	-10.16230699692681	0	58.8263689258082	1.026713824748233	-5.040105760141982	0	0	44.2047826924084	-10.16230699692681	0	58.8263689258082	1.026713824748233	-5.040105760141982	0	0	-21.26481690359007	-6.564662744954617	-17.96994731601959	55.02361564700557	17.5640162537613	16.9085697015692	0.03816302818256078	3.718597011128955	0	0	0	-10.83109568075715	0	86.32285890575646	3.718597011128955	0	0
1.41	1.012710820189881	16.17217873201385	-93.33441438114272	0	0.9399999998679526	0	44.23526767407623	-10.14421829217018	0	58.86278565679618	1.027349416606786	-5.03464087716167	0	0	44.23526767407623	-10.14421829217018	0	58.86278565679618	1.027349416606786	-5.03464087716167	0	0	-20.44775172187	-6.797186783710352	-17.3449671993644	54.43077029476574	16.54816241715244	17.52209074950007	0.04546442514936478	3.616348355301116	0	0	0	-10.91711979430622	0	86.42396003474738	3.616348355301116	0	0
1.42	1.125341887340548	15.09914296775433	-93.7394602258355	0	0.9399999998679526	0	44.23786512063784	-10.14302345000063	0	58.86660506968162	1.02741607793713	-5.03429552418601	0	0	44.23786512063784	-10.14302345000063	0	58.86660506968162	1.02741607793713	-5.03429552418601	0	0	-19.80343022552436	-6.934193790939928	-16.79897800933425	53.95163040309782	15.45768941214726	18.06448108466593	0.05809192979615654	3.606957292818178	0	0	0	-10.92552269475427	0	86.43324582049277	3.606957292818178	0	0
1.43	1.215171594265732	14.05196515985618	-94.13253999154192	0	0.9399999998679526	0	44.24055129592881	-10.14179162569269	0	58.87055180402279	1.027484961446085	-5.033939906593245	0	0	44.24055129592881	-10.14179162569269	0	58.87055180402279	1.027484961446085	-5.033939906593245	0	0	-19.09984562949407	-7.032184951200534	-16.2115830518466	53.36016316716556	14.16483312841818	18.5396921526638	0.08525519485113824	3.597241246396768	0	0	0	-10.9342187400357	0	86.44285294765521	3.597241246396768	0	0
1.44	1.215086835271922	13.12142025236516	-94.30556536603818	0	0.9399999998679526	0	44.24342541791451	-10.14048826787603	0	58.87478617304521	1.027558865127271	-5.033564961698329	0	0	44.24342541791451	-10.14048826787603	0	58.87478617304521	1.027558865127271	-5.033564961698329	0	0	-18.24317132940834	-7.188030176887963	-15.3345819378121	52.72969804895856	12.53137144728444	18.60865669547818	0.1969079981444209	3.586824249600951	0	0	0	-10.94355556697837	0	86.45315317086087	3.586824249600951	0	0
1.45	1.095300568685363	11.90871067231641	-94.14691559135196	0	0.9399999998679526	0	44.24786556064868	-10.13851361740646	0	58.88135850822354	1.027673574015677	-5.033000526051798	0	0	44.24786556064868	-10.13851361740646	0	58.88135850822354	1.027673574015677	-5.033000526051798	0	0	-17.75676416721465	-7.167000058939514	-14.76219859117427	51.57781305518971	10.47753129110539	18.79936673864892	1.438953033077824	3.570677033511132	0	0	0	-10.95806245561969	0	86.46911938688869	3.570677033511132	0	0
1.46	0.9910949445571421	10.70433367893902	-93.99964839956327	0	0.9399999998679526	0	44.25386600002392	-10.13585889806061	0	58.89022197839117	1.027828270753255	-5.032243314081371	0	0	44.25386600002392	-10.13585889806061	0	58.89022197839117	1.027828270753255	-5.032243314081371	0	0	-17.32605396222457	-7.102731235034374	-14.26263783122519	49.92301205823975	8.011895629133482	19.13920567199894	4.124535945392304	3.548841994279059	0	0	0	-10.97768638756895	0	86.49070967106138	3.548841994279059	0	0
